<?xml version="1.0" encoding="UTF-8"?>
<svg width="100px" height="100px" viewBox="0 0 100 100" version="1.1" xmlns="http://www.w3.org/2000/svg" xmlns:xlink="http://www.w3.org/1999/xlink">
    <title>Artboard</title>
    <g id="Artboard" stroke="none" stroke-width="1" fill="none" fill-rule="evenodd" stroke-linejoin="round">
        <path d="M2,46.866297 L9.45865263,46.866297 L9.45865263,36.2243418 L5.56555784,36.2243418 C5.98956076,31.1410439 7.62902627,28.1557094 10.4839544,27.2683386 C11.1222629,27.069939 10.4302233,27.7418492 10.2097685,28.2888495 C9.94749988,28.9395998 9.44635563,30.5138067 9.0190044,32.3178339 C8.8828707,32.8925108 8.71193577,33.7705783 8.5061996,34.9520364 L9.88697758,34.9520364 C11.5840175,29.7095028 12.9980378,26.8298099 14.1290385,26.3129576 C15.8255395,25.5376791 20.924575,22.9084657 30.686929,21.3620015 C40.449283,19.8155373 55.5542727,16.0910885 55.8974986,19.6340174 C55.9194587,19.8606988 55.673368,19.8432732 55.378606,19.8847544 C54.9689249,19.9424081 54.4173593,20.0121304 53.9343261,20.1028722 C53.3035033,20.2213777 52.3137458,20.5957291 51.7255392,20.895809 C51.5534369,20.9836088 49.2128894,22.1580557 47.841319,23.5657803 C45.6697392,25.7946022 44.3508862,28.8662524 44.3508862,30.87 C44.3508862,34.3175687 44.3508862,38.5361479 44.3508862,43.5257376 L53.0218233,43.5257376 L53.0218233,31.6518764 L48.6094784,31.6518764 C48.4825991,29.7143649 48.5642198,28.4289741 48.8543407,27.7957041 C49.8796397,25.5577017 51.8219774,24.7910314 52.2221226,24.5762313 C53.4348328,23.9252416 54.9146797,24.042372 55.5203174,25.241788 C56.5302364,27.2418501 53.6059955,48.5522762 52.2221226,55.2823328 C52.1224315,55.7671509 51.0551134,57.5178391 49.6935952,58.0349555 C48.2883395,58.5686838 38.7891732,59.8508409 29.9973528,60.2104573 C19.4757011,60.6408299 7.37221475,59.9445185 4.38855512,58.4162456 C3.44448943,57.9326817 3.22334958,68.7600444 3.41935246,75.552673 C3.48550763,77.8453306 3.70966608,80.0506866 4.09182781,82.168741 C4.55062717,83.4153873 5.71370904,86.7427794 10.9060347,87.454911 C14.3675851,87.9296655 18.1421465,88.2986598 22.2297188,88.5618941 C26.7382642,88.7401266 30.135496,88.8784748 32.4214144,88.9769387 C34.641272,89.0725571 40.5654922,88.8878998 45.1162648,88.1000514 C47.5947908,87.6709589 49.570275,86.7377513 50.5382284,86.3223088 C53.667135,84.9793921 55.5778483,83.0940282 57.1835275,81.5250739 C57.2728383,81.4378058 52.877789,82.9188132 46.5377817,83.7702265 C45.9593326,83.8479076 42.3392477,84.4417484 38.4438636,84.4850227 C35.7106018,84.5153869 30.0795305,84.5603523 24.6565822,84.179721 C18.7478497,83.7649931 13.0694764,82.9034118 11.229321,82.4568947 C8.38253956,81.766118 6.4806171,80.3972745 6.28770206,79.3606617 C6.1083815,78.3970977 5.93591362,73.8948171 5.85924214,73.0620555 C5.82102543,72.6469676 10.0727826,75.4479126 11.229321,75.3312154 C11.5066548,75.3032318 10.4980038,74.8817149 10.2097685,74.7255163 C9.99640109,74.6098896 9.15319378,74.2047062 7.90628767,73.4112659 C7.5983842,73.2153385 7.10332003,72.8585005 6.42109517,72.3407518 C6.12843718,71.2374037 6.08397281,70.0909907 6.28770206,68.9015127 C6.31974821,68.7144105 6.72713125,69.2037535 7.3224633,69.6136391 C7.82727397,69.9612008 8.50441514,70.2090904 8.81350923,70.383856 C8.87639742,70.4194138 9.90732547,70.7919906 11.9062934,71.5015863 L12.571037,75.9720961 C16.3608788,77.3366922 20.7041327,77.9631916 25.6007987,77.8515944 C30.4974647,77.7399972 34.261298,77.5145782 36.8922984,77.1753373 L39.3191307,72.1205227 C42.8101865,71.4979359 45.4143051,71.0003436 47.1314864,70.6277457 C48.8486677,70.2551478 50.7187371,69.7819207 52.7416947,69.2080643 L52.7416947,73.0620555 C49.4535711,74.0984334 47.1292603,74.7698537 45.7687621,75.0763167 C41.36072,76.0692628 38.807938,76.7893554 38.7140817,76.7723265 C38.5804206,76.7480754 39.8231267,76.7532919 41.3372559,76.606583 C41.5820942,76.5828598 45.5449117,76.0563075 49.6935952,75.0763167 C50.8369449,74.8062377 52.2968506,74.327642 54.0733123,73.6405296 L54.2468551,68.6514396 L55.1192968,68.2890712 L55.1192968,73.2450738 C55.4361687,73.115478 55.6387231,72.6671959 55.7269599,71.9002275 C55.8151967,71.133259 55.872043,69.3267891 55.8974986,66.4808177 C47.7894225,69.8881301 38.4305359,71.6431932 27.8208389,71.7460069 C17.2111419,71.8488206 9.79271487,70.2673314 5.56555784,67.0015391 C5.50460384,65.3627972 5.60249861,64.0421611 5.85924214,63.0396309 C6.00072021,62.4871884 8.84593115,64.0194684 13.7179126,64.3765818 C16.3641229,64.5705475 21.790603,64.6200508 29.9973528,64.5250917 C38.3226654,64.0434209 43.8361417,63.6285582 46.5377817,63.2805039 C51.4922656,62.642214 53.8458345,63.0079782 55.1192968,60.9295426 C55.364254,60.5297444 56.9698169,49.1320486 57.9206563,38.0988588 C58.7362229,28.6353246 58.9521626,19.3898525 58.7524456,18.1510287 C58.5922887,17.1575916 57.6921524,16.6405003 56.5954673,16.3317283 C56.010155,16.1669335 54.9226452,16.094473 53.332938,16.1143469 C51.3609827,16.1639949 49.868117,16.2364554 48.8543407,16.3317283 C45.1039218,16.6841861 41.931773,17.1999996 40.7925375,17.3630676 C40.0760893,17.4656186 35.8500432,18.3061809 28.1143991,19.8847544 C24.6313349,20.6304614 22.0092315,21.2842765 20.2480889,21.8461996 C18.4869463,22.4081226 17.3126443,22.8609382 16.7251829,23.2046464 C17.382636,22.3894395 18.7913878,21.619827 20.9514382,20.895809 C22.5117275,20.3728223 24.8993812,19.7020595 28.1143991,18.8835207 C30.261152,18.3495127 31.9255283,17.9612749 33.107528,17.7188073 C34.2895278,17.4763397 36.0683063,17.1582715 38.4438636,16.7646029 C46.7537418,15.476534 52.1275498,14.7783407 54.5652877,14.670023 C56.9861479,14.5624552 58.7822778,15.1881815 59.6540186,15.3796519 C60.4996601,15.5653898 62.4111055,16.3030992 63.2593887,16.7646029 C67.1571891,18.8851791 73.5616798,22.2144771 84.3217588,31.0169113 C84.3457009,31.0364975 78.5671619,33.9614285 76.1959847,42.7347279 C75.5565477,45.1006298 74.9579287,46.3897121 74.6400626,47.167445 C74.3362845,47.9107086 73.7748138,49.2636029 72.1765833,51.4200655 C71.6730888,52.0994212 75.8683655,36.162601 80.8486707,31.1954694 C81.0534289,30.9912528 79.6650032,30.098727 77.7045527,28.6734871 C72.4128583,24.8264461 62.1200974,18.2191774 61.4284038,19.2828665 C60.9825682,19.9684744 60.551607,25.1186668 59.6540186,32.9892417 C58.6431257,41.8533354 57.2187243,54.2081349 57.9206563,68.2890712 C58.0137649,70.1568536 58.3546949,64.9399531 58.4516026,64.5250917 C58.6246191,63.7844087 59.5939691,54.9034637 61.4284038,39.8406376 C61.7205311,37.4419354 62.5995677,25.1108674 64.4588199,24.5762313 C66.4558145,24.0019866 69.742977,25.4217329 70.7966,26.0224576 C72.1881312,26.815841 74.6493244,28.4316884 78.1801798,30.87 C76.5360792,33.1676801 75.3560402,35.0711699 74.6400626,36.5804693 C74.0924047,37.7349465 73.2029432,39.4828602 72.5322039,41.5802509 C72.455504,41.8200902 71.6016958,44.9690083 70.1710395,49.0576918 C69.3355863,51.4453401 68.4751106,54.0654652 67.0046455,56.8461504 C66.5042266,57.7924548 65.6415605,59.6356557 64.4588199,61.0895881 C63.8346292,61.8569002 62.691577,62.9525647 61.0296633,64.3765818 C63.6455153,63.9701389 65.637176,63.3349949 67.0046455,62.4711499 C68.372115,61.6073048 70.2146344,59.8774203 72.5322039,57.2814961 C73.4874838,56.2263012 74.1901033,55.5599134 74.6400626,55.2823328 C76.1949309,54.323132 77.4808064,54.2924821 78.1801798,54.1544986 C78.7958423,54.0330308 83.8129789,54.1544986 84.3217588,54.1544986 C83.7546443,53.0800582 82.8625472,52.3022685 81.6454672,51.8211293 C81.2539877,51.6663686 77.6953566,49.4446271 77.7045527,48.9265422 C77.7068956,48.7945477 77.1820245,47.3468148 78.1801798,45.1940332 C78.6609151,44.1572023 81.2931381,38.8128041 82.5022894,37.6660767 C82.8621543,37.3247902 83.3449422,36.6452018 84.3217588,36.2243418 C84.5171264,36.140168 85.5377763,35.583498 87.6178728,35.736311 C87.8418337,35.7527641 89.9699813,36.0219746 91.8372829,36.5804693 C92.7291085,36.847207 93.9321134,37.3533369 95.4462976,38.0988588 C97.8683848,38.137646 99.0523604,38.137646 98.9982247,38.0988588 C85.2889145,28.2763989 82.1467431,26.4060122 78.1801798,23.5657803 C70.6906502,18.2029513 66.4394625,15.4793684 65.6553644,15.0154083 C64.1718597,14.1376012 62.2161029,12.6998426 58.4516026,12.0750355 C57.7755152,11.962823 52.9684056,11.7986448 45.1162648,13.069794 C43.3011582,13.3636338 37.9981975,14.2125484 30.686929,16.1143469 C28.8321969,16.5967976 25.8987761,17.5198555 21.8866665,18.8835207 C19.1722942,20.030968 16.9041126,21.1134044 15.0821216,22.13083 C13.2601305,23.1482556 12.4231023,23.7998122 12.571037,24.0854999 C11.168836,24.0896172 10.1313745,24.2531943 9.45865263,24.5762313 C8.30533449,25.1300475 6.28770206,26.0224576 4.38855512,28.6734871 C3.12245716,30.4408402 2.32627212,32.9577917 2,36.2243418 L2,46.866297 Z" id="Pathh-buss-1-Copy" stroke="#2E2E2E" fill="#2E2E2E"></path>
    </g>
</svg>